<?xml version="1.0" encoding="utf-8"?>
<!-- Generator: Adobe Illustrator 16.0.3, SVG Export Plug-In . SVG Version: 6.00 Build 0)  -->
<!DOCTYPE svg PUBLIC "-//W3C//DTD SVG 1.1//EN" "http://www.w3.org/Graphics/SVG/1.1/DTD/svg11.dtd">
<svg version="1.1" id="logo-blue" xmlns="http://www.w3.org/2000/svg" xmlns:xlink="http://www.w3.org/1999/xlink" x="0px" y="0px"
	 width="125px" height="60px" viewBox="67 25 125 60" style="enable-background:new 67 25 125 60;" xml:space="preserve">
<style type="text/css">
<![CDATA[
	.st0{fill:#113D64;}
]]>
</style>
<g>
	<g>
		<path class="st0" d="M114.3,77.3l2.3-0.1c0.1,0,0.1-0.1,0.1-0.1c0-3.9,0-8.5,0-12.3l-2.8,0c0-0.5,0-1.1,0-1.6c1.6-0.2,5.2-1,5.4-1
			c0,0,0.1,0,0.1,0.1c0,1,0.1,3.2,0.2,5.2h0.2c2.2-4.3,3.6-5.3,5.3-5.3c0.9,0,1.8,0.2,2.3,0.4c0,0.8-0.6,2.5-1.1,2.9
			c-0.4-0.1-1.3-0.3-2-0.3c-0.4,0-0.8,0.2-1.3,0.6c-0.7,0.6-1.6,1.7-2.6,3.6c-0.4,0.9-0.6,2.3-0.7,3.6c0,1.4,0,2.9,0,4.2l3.7,0.1
			c0,0.5,0,1.1-0.1,1.7c-1.4,0-3.2,0-5,0c-1.3,0-2.8,0-4.1,0C114.2,78.5,114.3,77.9,114.3,77.3z"/>
		<path class="st0" d="M138.1,62c1.7,0,3,0.4,3.6,0.8c0,0.6-0.8,2.1-1.3,2.4c-0.4-0.1-1.9-1-3.5-1c-1.5,0-2.5,0.5-3.3,1.4
			c-0.9,1-1.8,2.7-1.8,5.1c0,2.2,0.4,3.6,1.4,4.8c0.9,1.1,2.3,1.5,3.5,1.5c1.5,0,3.5-0.7,4.8-1.2c0.2,0.5,0.4,1.1,0.4,1.7
			c-2.1,1.1-4.5,1.6-6.2,1.6c-3.8,0-7.2-2.7-7.2-7.6C128.6,65.9,132.5,62,138.1,62z"/>
		<path class="st0" d="M147.9,78.1c-1.1-0.9-1.1-1.8-1.1-3c0-2,0-5.2,0.1-6.2c0-1.2,0-3.5,0-4.5c-0.8,0-1.8,0-2.7,0
			c0-0.6,0-1.3,0-1.9c0.9,0,1.7,0,2.5-0.1c0.1,0,0.2-0.1,0.3-0.3c0-1.1,0.1-2.5,0.1-3.6c1-0.7,2.7-1.3,2.8-1.3c0.1,0,0.1,0,0.1,0.1
			c0,1.3-0.1,3.4-0.1,5.1c2,0,4.1,0,6.1,0c0,0.7-0.1,1.4-0.1,2c-1.8,0-3.9,0-6.1,0c0,0.6,0,3.1,0,4.4c0,1.6,0,3.9,0,5.9
			c0,1.7,1.2,2.4,2.5,2.4c0.9,0,2.4-0.3,3.7-0.6c0.1,0.5,0.2,1.2,0.3,1.7c-1.8,0.7-4.1,1-5.5,1C150.1,79.1,148.9,79.1,147.9,78.1z"
			/>
		<path class="st0" d="M161.1,77.3c-1.7-1.6-2.6-3.7-2.6-6.4c0-2.8,1.1-5.3,3.3-7.1c1.5-1.2,3.5-1.8,5.3-1.8c1.8,0,3.4,0.4,4.8,1.5
			c2,1.5,3,3.7,3,6.8c0,3.1-1.3,5.7-3.4,7.3c-1.5,1.2-3.1,1.6-5.2,1.6C164.3,79.1,162.4,78.5,161.1,77.3z M170,76.1
			c1.3-1.4,1.8-3.2,1.8-5.8c0-2.2-0.5-4-1.6-5.2c-1-1.1-2-1.4-3.3-1.4c-1.1,0-2.4,0.4-3.3,1.3c-1.3,1.3-1.8,3.2-1.8,5.5
			c0,2.5,0.5,4.3,1.8,5.5c0.8,0.8,1.9,1.3,3.1,1.3C168,77.4,169.1,77.1,170,76.1z"/>
		<path class="st0" d="M180.8,76.1c0.1,0.2,0.1,0.3,0.3,0.5c0.6,0.4,1.6,0.8,2.7,0.8c1.1,0,2.1-0.1,2.9-0.6c0.6-0.4,1.1-1.1,1.1-2.2
			c0-2-1.2-2.2-4.5-3.2c-3.1-1-4.4-2.2-4.4-4.4c0-1.9,1.2-3.2,2.5-3.9c1.2-0.7,2.7-1.1,4.6-1.1c2.1,0,3.4,0.5,3.8,0.7
			c0.2,1.4,0.3,2.8,0.4,4.3c-0.6,0.1-1.3,0.2-2,0.3l-0.5-2.5c-0.1-0.2-0.2-0.4-0.3-0.5c-0.5-0.4-1.3-0.5-2.3-0.5
			c-1,0-1.9,0.3-2.5,0.7c-0.5,0.4-0.9,1.1-0.9,2.1c0,1.6,0.7,1.8,3.9,2.8c2.8,0.8,5,1.7,5,4.7c0,1.7-0.8,3.2-2.5,4.1
			c-1.1,0.7-2.8,1-4.7,1c-2.1,0-3.8-0.4-4.7-0.7c-0.2-1.5-0.4-3-0.5-4.5c0.6-0.1,1.4-0.3,2-0.4L180.8,76.1z"/>
	</g>
	<path id="bear-up_1_" class="st0" d="M86,37.6c0.2,0.1,0.4,0.1,0.6,0.3c0.3,0.2,0.7,0.4,1.1,0.6c0.4,0.2,7.2,3.2,9,4.4
		c1.9,1.4,3.6,2.8,5.1,4.5c0.4,0.5,2.1,2.3,2.5,2.8c1.1,1.6,1.9,3,2.7,4.8c1.1,2.4,1.7,4.7,2.1,7.3c0.6,4.5,1.3,9.2,1.3,13.7
		c0,1,0.1,2,0,3.1c0,0-21.4,0-22.1-0.1c0,0,1.3-4,1.4-4.4c0.4-1.6,0.5-3.3-0.7-4.6c-1.2,0.2-2,0.8-2.6,1.7c-0.4,0.6-0.8,1.2-1.1,1.9
		c-0.3,0.7-0.4,1.4-0.6,2.2c-0.1,0.2-0.1,0.5-0.2,0.7c0,0.3-0.1,2.5,0.1,2.5c-1.8,0.1-12.8,0.2-13.1,0.2c0.2-0.2,4.5-4.9,5.1-5.9
		c1.5-2.5,2.9-5.1,3.6-7.9c0.7-2.7,1.4-5.8,1.6-8.5c0.4-6.6-4.8-10.3-8.2-15.2c-0.8-1.2-1.9-2.2-2.8-3.4c-0.4-0.5-0.7-1-1-1.6
		c-0.3-0.5-0.6-0.8-0.8-1.3c-0.4-0.9-0.8-1.7-0.6-2.7c0.1-0.3,0.3-0.6,0.4-0.9c0.1-0.2,0.1-0.4,0.2-0.6c0-0.2,0.1-0.3,0.3-0.4
		c0.4-0.1,1,0,1.4,0c0.8,0.1,1.5,0.4,2.3,0.6c1.1,0.4,2.1,1,3.4,1.2c1.3,0.1,2.3-0.1,3.5,0.5c1,0.5,2,1,3,1.3c0.5,0.2,1,0.2,1.6,0.2
		c0.9,0,1.9,0.2,2.7,0.7c0.3,0.2,0.6,0.6,0.7,1c0.1,0.5,0.1,0.9-0.4,1C87,37.7,86.5,37.7,86,37.6"/>
</g>
</svg>
