<?xml version="1.0" encoding="utf-8"?>
<!-- Generator: Adobe Illustrator 16.0.3, SVG Export Plug-In . SVG Version: 6.00 Build 0)  -->
<!DOCTYPE svg PUBLIC "-//W3C//DTD SVG 1.1//EN" "http://www.w3.org/Graphics/SVG/1.1/DTD/svg11.dtd">
<svg version="1.1" xmlns="http://www.w3.org/2000/svg" xmlns:xlink="http://www.w3.org/1999/xlink" x="0px" y="0px" width="262px"
	 height="110px" viewBox="0 0 262 110" enable-background="new 0 0 262 110" xml:space="preserve">
<g id="footer_49px__xD7__53px" display="none">
	
		<rect x="76.814" y="-7.711" display="inline" fill="#FFFFFF" stroke="#003C64" stroke-width="6" stroke-miterlimit="10" width="104.133" height="123.444"/>
	<path id="bear-up_6_" display="inline" fill="#231F20" d="M122.919,14.572c0.405,0.145,0.699,0.254,1.042,0.488
		c0.598,0.41,1.27,0.667,1.912,1.014c0.772,0.418,13.007,5.683,16.106,7.959c3.327,2.442,6.43,5.11,9.23,8.144
		c0.764,0.827,3.765,4.069,4.469,5.101c1.915,2.798,3.46,5.396,4.892,8.531c1.934,4.233,3.104,8.462,3.75,13.076
		c1.132,8.098,2.309,16.453,2.396,24.637c0.019,1.861,0.093,3.662,0.031,5.521c-0.001,0.086-38.489,0.004-39.761-0.137
		c-0.005,0,2.298-7.213,2.473-7.906c0.732-2.898,0.888-5.898-1.336-8.215c-2.114,0.352-3.523,1.395-4.749,3.084
		c-0.79,1.09-1.466,2.158-1.966,3.406c-0.502,1.254-0.742,2.604-1.133,3.9c-0.124,0.41-0.266,0.863-0.307,1.293
		c-0.043,0.455-0.202,4.48,0.156,4.461c-3.294,0.176-23.041,0.369-23.52,0.305c0.423-0.416,8.076-8.762,9.15-10.57
		c2.655-4.467,5.245-9.092,6.514-14.172c1.207-4.834,2.502-10.366,2.804-15.346c0.72-11.898-8.571-18.491-14.757-27.243
		c-1.523-2.153-3.405-4.021-4.971-6.143c-0.659-0.894-1.178-1.853-1.715-2.822c-0.455-0.822-1.1-1.433-1.508-2.314
		c-0.711-1.529-1.434-3.104-1.001-4.814c0.14-0.55,0.486-1.094,0.719-1.607c0.151-0.335,0.244-0.645,0.327-0.99
		c0.068-0.282,0.265-0.54,0.549-0.636c0.742-0.254,1.822-0.048,2.572,0.065c1.402,0.209,2.756,0.647,4.073,1.165
		c2.003,0.789,3.842,1.847,6.022,2.104c2.249,0.264,4.214-0.1,6.345,0.961c1.708,0.85,3.657,1.726,5.47,2.309
		c0.912,0.294,1.874,0.34,2.824,0.362c1.578,0.033,3.467,0.344,4.8,1.182c0.624,0.392,1.13,0.991,1.265,1.76
		c0.153,0.872,0.121,1.559-0.784,1.878c-0.702,0.249-1.456,0.26-2.239,0.26"/>
	
		<text transform="matrix(1 0 0 1 83.1475 109.3213)" display="inline" fill="#231F20" font-family="'ChaparralPro-Bold'" font-size="32">arctos</text>
</g>
<g id="header-116px__xD7__60px">
	<rect x="-1" y="1" fill="none" width="263" height="108"/>
	<g>
		<path fill="#003C64" d="M96.943,102.051l4.785-0.248c0.165,0,0.248-0.164,0.248-0.247c0-8.167,0-17.984,0-25.903l-6.022-0.083
			c0-1.073,0.083-2.31,0.083-3.382c3.3-0.496,10.972-2.146,11.467-2.146c0.083,0,0.165,0.083,0.165,0.247
			c0.083,2.146,0.165,6.683,0.33,11.055h0.33c4.702-9.156,7.672-11.302,11.137-11.302c1.897,0,3.795,0.413,4.95,0.907
			c0,1.732-1.32,5.279-2.31,6.105c-0.743-0.166-2.723-0.66-4.208-0.66c-0.825,0-1.65,0.33-2.805,1.237
			c-1.567,1.237-3.3,3.63-5.445,7.672c-0.908,1.897-1.32,4.867-1.402,7.59c0,2.888-0.083,6.187-0.083,8.827l7.837,0.248
			c0,1.072,0,2.392-0.165,3.547c-2.97,0-6.847,0-10.477,0c-2.805,0-5.939,0.082-8.58,0.082
			C96.778,104.443,96.86,103.123,96.943,102.051z"/>
		<path fill="#003C64" d="M147.186,69.541c3.547,0,6.352,0.908,7.59,1.732c0,1.238-1.732,4.455-2.723,5.115
			c-0.742-0.248-4.043-2.062-7.425-2.062c-3.218,0-5.28,1.072-7.013,3.053c-1.896,2.062-3.795,5.691-3.795,10.807
			c0,4.62,0.908,7.59,3.053,10.064c1.898,2.393,4.867,3.135,7.425,3.135c3.218,0,7.425-1.402,10.147-2.475
			c0.412,1.072,0.742,2.393,0.907,3.547c-4.372,2.229-9.487,3.383-13.034,3.383c-8.002,0-15.18-5.609-15.18-16.004
			C127.139,77.956,135.471,69.541,147.186,69.541z"/>
		<path fill="#003C64" d="M167.893,103.613c-2.227-1.98-2.31-3.878-2.31-6.354c0-4.289,0.083-10.972,0.165-13.033
			c0-2.559,0.082-7.426,0.082-9.57c-1.649,0-3.794,0-5.691,0c0-1.32,0-2.805,0.082-4.043c1.815,0,3.63-0.082,5.28-0.164
			c0.247,0,0.495-0.248,0.577-0.578c0-2.31,0.165-5.197,0.248-7.59c2.145-1.402,5.609-2.805,5.857-2.805
			c0.164,0,0.247,0.083,0.247,0.248c-0.083,2.805-0.165,7.26-0.165,10.725c4.207,0,8.744,0,12.951-0.083
			c0,1.485-0.164,3.053-0.247,4.29c-3.794,0-8.167,0-12.869,0c0,1.237,0,6.6,0,9.24c-0.083,3.382-0.083,8.332-0.083,12.374
			c0,3.548,2.475,5.114,5.363,5.114c1.896,0,5.031-0.577,7.919-1.319c0.247,1.155,0.413,2.475,0.577,3.63
			c-3.877,1.402-8.579,2.062-11.549,2.062C172.514,105.758,170.121,105.675,167.893,103.613z"/>
		<path fill="#003C64" d="M195.86,101.963c-3.63-3.301-5.527-7.755-5.527-13.529c0-5.857,2.228-11.22,7.013-15.098
			c3.135-2.557,7.342-3.795,11.302-3.795c3.878,0,7.26,0.908,10.229,3.135c4.125,3.135,6.435,7.756,6.435,14.272
			c0,6.6-2.722,12.044-7.095,15.427c-3.135,2.475-6.6,3.465-10.972,3.465C202.543,105.84,198.582,104.438,195.86,101.963z
			 M214.67,99.488c2.723-2.971,3.712-6.683,3.712-12.21c0-4.62-0.989-8.415-3.3-10.972c-2.062-2.229-4.207-3.053-7.012-3.053
			c-2.311,0-5.033,0.824-6.93,2.805c-2.641,2.723-3.795,6.682-3.795,11.715c0,5.362,1.154,8.992,3.795,11.715
			c1.649,1.732,3.959,2.722,6.6,2.722C210.297,102.21,212.771,101.468,214.67,99.488z"/>
		<path fill="#003C64" d="M237.521,99.322c0.165,0.413,0.248,0.66,0.66,0.99c1.237,0.908,3.465,1.732,5.692,1.732
			c2.392,0,4.454-0.164,6.187-1.32c1.238-0.906,2.393-2.309,2.393-4.619c0-4.207-2.475-4.703-9.404-6.765
			c-6.6-2.062-9.24-4.702-9.24-9.239c0-3.961,2.559-6.848,5.197-8.332c2.476-1.403,5.775-2.229,9.735-2.229
			c4.372,0,7.26,1.072,8.085,1.485c0.412,3.052,0.66,6.022,0.907,9.075c-1.237,0.247-2.806,0.494-4.208,0.66l-1.072-5.198
			c-0.164-0.412-0.33-0.742-0.66-0.989c-0.989-0.743-2.805-1.155-4.784-1.155c-2.146,0-3.96,0.577-5.197,1.485
			c-1.073,0.824-1.979,2.227-1.979,4.371c0,3.301,1.566,3.878,8.166,5.857c5.94,1.732,10.478,3.631,10.478,9.9
			c0,3.629-1.732,6.682-5.28,8.744c-2.227,1.402-5.939,2.062-9.898,2.062c-4.455,0-8.085-0.824-9.982-1.567
			c-0.33-3.218-0.742-6.353-1.155-9.569c1.32-0.248,2.888-0.578,4.208-0.742L237.521,99.322z"/>
	</g>
	<path id="bear-up_2_" fill="#003C64" d="M40.573,18.138c0.476,0.17,0.822,0.298,1.226,0.574c0.703,0.481,1.493,0.784,2.249,1.193
		c0.909,0.492,15.302,6.686,18.948,9.362c3.915,2.874,7.564,6.013,10.859,9.582c0.898,0.973,4.43,4.788,5.259,6
		c2.251,3.291,4.07,6.348,5.754,10.037c2.274,4.981,3.652,9.955,4.412,15.384c1.332,9.525,2.716,19.356,2.817,28.983
		c0.022,2.19,0.11,4.309,0.038,6.496c-0.003,0.102-45.283,0.005-46.777-0.161c-0.006-0.001,2.702-8.485,2.908-9.302
		c0.862-3.409,1.045-6.939-1.571-9.663c-2.487,0.411-4.145,1.641-5.587,3.629c-0.929,1.28-1.725,2.538-2.312,4.006
		c-0.591,1.475-0.873,3.062-1.333,4.589c-0.146,0.482-0.312,1.017-0.36,1.521c-0.051,0.533-0.239,5.271,0.183,5.249
		c-3.875,0.204-27.106,0.433-27.67,0.357c0.498-0.49,9.503-10.31,10.767-12.436c3.123-5.257,6.17-10.695,7.663-16.673
		c1.42-5.687,2.943-12.195,3.298-18.054c0.848-13.999-10.084-21.755-17.36-32.051c-1.792-2.534-4.006-4.731-5.848-7.227
		c-0.777-1.052-1.386-2.181-2.018-3.32c-0.536-0.967-1.293-1.686-1.775-2.723C3.506,11.694,2.654,9.84,3.165,7.828
		c0.165-0.646,0.572-1.286,0.845-1.89c0.179-0.395,0.288-0.757,0.385-1.164c0.08-0.333,0.312-0.634,0.646-0.749
		C5.915,3.727,7.185,3.97,8.066,4.102c1.651,0.247,3.243,0.763,4.792,1.372c2.356,0.928,4.52,2.172,7.084,2.474
		c2.647,0.311,4.958-0.116,7.465,1.131c2.009,1,4.302,2.031,6.435,2.717c1.073,0.346,2.205,0.401,3.323,0.426
		c1.856,0.04,4.078,0.405,5.646,1.391c0.734,0.461,1.331,1.167,1.489,2.07c0.18,1.025,0.141,1.834-0.923,2.21
		c-0.826,0.292-1.713,0.306-2.634,0.306"/>
</g>
<g id="Layer_3" display="none">
	<path id="bear-up_1_" display="inline" fill="#003C64" d="M-13.798-31.509c-0.952,0.34-1.645,0.596-2.451,1.148
		c-1.406,0.963-2.986,1.568-4.498,2.387c-1.817,0.984-30.604,13.371-37.896,18.725c-7.83,5.748-15.129,12.025-21.719,19.164
		c-1.797,1.946-8.859,9.576-10.518,12.001c-4.502,6.582-8.141,12.695-11.508,20.073c-4.549,9.963-7.305,19.91-8.824,30.768
		c-2.664,19.051-5.432,38.713-5.635,57.967c-0.045,4.381-0.221,8.617-0.076,12.992c0.006,0.203,90.565,0.01,93.555-0.322
		c0.012-0.002-5.404-16.971-5.816-18.604c-1.724-6.818-2.09-13.879,3.143-19.326c4.975,0.822,8.29,3.281,11.175,7.258
		c1.857,2.561,3.449,5.076,4.625,8.012c1.182,2.949,1.746,6.125,2.665,9.178c0.291,0.965,0.624,2.033,0.721,3.043
		c0.103,1.066,0.478,10.541-0.365,10.498c7.75,0.408,54.212,0.865,55.341,0.715c-0.996-0.98-19.007-20.619-21.533-24.871
		c-6.245-10.514-12.341-21.391-15.325-33.346C8.421,74.577,5.375,61.56,4.665,49.843C2.97,21.846,24.833,6.333,39.385-14.259
		c3.583-5.068,8.013-9.463,11.695-14.453c1.554-2.104,2.771-4.361,4.035-6.641c1.072-1.934,2.587-3.371,3.551-5.446
		c1.671-3.598,3.374-7.306,2.354-11.329c-0.329-1.292-1.145-2.572-1.69-3.78c-0.357-0.79-0.575-1.515-0.77-2.328
		c-0.16-0.665-0.624-1.269-1.293-1.497c-1.747-0.598-4.287-0.111-6.051,0.152c-3.303,0.493-6.485,1.525-9.585,2.744
		c-4.713,1.855-9.039,4.345-14.169,4.947c-5.295,0.622-9.917-0.232-14.931,2.262c-4.019,2-8.604,4.062-12.869,5.434
		c-2.146,0.691-4.41,0.803-6.646,0.852c-3.712,0.08-8.155,0.811-11.292,2.782c-1.469,0.923-2.661,2.333-2.979,4.14
		c-0.359,2.051-0.282,3.668,1.847,4.42c1.652,0.585,3.426,0.611,5.269,0.611"/>
</g>
<g id="Layer_4" display="none">
	<path id="bear-up_3_" display="inline" fill="#231F20" d="M-37.42-31.509c0.952,0.34,1.645,0.596,2.451,1.148
		c1.406,0.963,2.986,1.568,4.498,2.387c1.817,0.984,30.604,13.371,37.896,18.725c7.83,5.748,15.129,12.025,21.719,19.164
		c1.797,1.946,8.859,9.576,10.518,12.001c4.502,6.582,8.141,12.695,11.508,20.073c4.549,9.963,7.305,19.91,8.824,30.768
		c2.664,19.051,5.432,38.713,5.635,57.967c0.045,4.381,0.221,8.617,0.076,12.992c-0.006,0.203-90.565,0.01-93.555-0.322
		c-0.012-0.002,5.404-16.971,5.816-18.604c1.724-6.818,2.09-13.879-3.143-19.326c-4.975,0.822-8.29,3.281-11.175,7.258
		c-1.857,2.561-3.449,5.076-4.625,8.012c-1.182,2.949-1.746,6.125-2.665,9.178c-0.291,0.965-0.624,2.033-0.721,3.043
		c-0.103,1.066-0.478,10.541,0.365,10.498c-7.75,0.408-54.212,0.865-55.341,0.715c0.996-0.98,19.007-20.619,21.533-24.871
		c6.245-10.514,12.341-21.391,15.325-33.346c2.84-11.373,5.886-24.391,6.596-36.107c1.695-27.997-20.168-43.51-34.72-64.102
		c-3.583-5.068-8.013-9.463-11.695-14.453c-1.554-2.104-2.771-4.361-4.035-6.641c-1.072-1.934-2.587-3.371-3.551-5.446
		c-1.671-3.598-3.374-7.306-2.354-11.329c0.329-1.292,1.145-2.572,1.69-3.78c0.357-0.79,0.575-1.515,0.77-2.328
		c0.16-0.665,0.624-1.269,1.293-1.497c1.747-0.598,4.287-0.111,6.051,0.152c3.303,0.493,6.485,1.525,9.585,2.744
		c4.713,1.855,9.039,4.345,14.169,4.947c5.295,0.622,9.917-0.232,14.931,2.262c4.019,2,8.604,4.062,12.869,5.434
		c2.146,0.691,4.41,0.803,6.646,0.852c3.712,0.08,8.155,0.811,11.292,2.782c1.469,0.923,2.661,2.333,2.979,4.14
		c0.359,2.051,0.282,3.668-1.847,4.42c-1.652,0.585-3.426,0.611-5.269,0.611"/>
</g>
</svg>
